<?xml version="1.0" standalone="no"?>
<!DOCTYPE svg PUBLIC "-//W3C//DTD SVG 20010904//EN"
 "http://www.w3.org/TR/2001/REC-SVG-20010904/DTD/svg10.dtd">
<svg version="1.0" xmlns="http://www.w3.org/2000/svg"
 width="640.000000pt" height="640.000000pt" viewBox="0 0 640.000000 640.000000"
 preserveAspectRatio="xMidYMid meet">
<metadata>
Created by potrace 1.11, written by Peter Selinger 2001-2013
</metadata>
<g transform="translate(0.000000,640.000000) scale(0.100000,-0.100000)"
fill="#000000" stroke="none">
<path d="M1679 5580 c-260 -24 -530 -122 -731 -263 -146 -104 -289 -261 -373
-411 -281 -502 -114 -1211 467 -1979 49 -65 91 -124 95 -132 4 -13 -33 -15
-263 -17 -261 -1 -260 -5 6 -18 l55 -3 -45 -7 c-40 -6 -41 -7 -12 -8 18 -1 31
-6 27 -12 -3 -5 -11 -7 -18 -4 -9 3 -11 -17 -9 -81 2 -47 7 -85 12 -85 11 0 7
-33 -5 -42 -5 -4 8 -5 30 -3 l40 5 -35 -16 c-19 -9 -73 -27 -120 -40 -47 -14
-91 -27 -98 -29 -9 -4 -5 -14 15 -34 31 -32 43 -31 43 2 l0 22 2460 0 c1354
-1 2465 2 2471 6 6 3 -4 9 -23 13 -51 10 -289 88 -284 93 3 3 21 0 40 -7 20
-6 51 -9 69 -6 24 5 27 4 12 -3 -15 -7 -16 -10 -4 -10 9 -1 18 2 22 5 9 9 -3
34 -17 34 -8 0 -10 26 -6 90 3 55 1 92 -5 94 -5 3 -1 5 10 6 14 2 11 5 -10 10
-26 7 -22 8 25 10 262 12 262 17 3 18 -150 1 -273 4 -273 7 0 3 31 45 69 93
131 167 277 392 379 582 243 457 317 928 200 1275 -97 286 -343 551 -653 700
-218 105 -416 147 -685 147 -593 -1 -947 -218 -1305 -801 l-58 -94 -21 38
c-37 66 -162 253 -217 322 -241 309 -528 478 -884 522 -123 15 -301 20 -396
11z m-659 -3045 c-19 -7 -42 -13 -50 -13 -8 0 1 6 20 13 19 7 42 13 50 13 8 0
-1 -6 -20 -13z m4347 9 c-3 -3 -12 -4 -19 -1 -8 3 -5 6 6 6 11 1 17 -2 13 -5z"/>
<path d="M5937 2463 c-2 -10 -8 -27 -12 -38 -12 -30 9 -6 23 28 6 15 8 27 3
27 -5 0 -11 -8 -14 -17z"/>
<path d="M5845 2350 c3 -5 8 -10 11 -10 2 0 4 5 4 10 0 6 -5 10 -11 10 -5 0
-7 -4 -4 -10z"/>
<path d="M5788 2313 c7 -3 16 -2 19 1 4 3 -2 6 -13 5 -11 0 -14 -3 -6 -6z"/>
<path d="M5876 2303 c-6 -14 -5 -15 5 -6 7 7 10 15 7 18 -3 3 -9 -2 -12 -12z"/>
<path d="M5767 2293 c-15 -15 -5 -47 23 -73 17 -15 30 -34 30 -41 0 -11 2 -10
13 0 10 11 10 14 0 18 -7 3 -13 9 -13 15 0 6 6 8 14 5 8 -3 18 5 25 19 16 37
13 54 -5 22 -25 -48 -95 -28 -79 22 6 20 4 25 -8 13z"/>
<path d="M1813 1725 c0 -27 2 -38 4 -22 2 15 2 37 0 50 -2 12 -4 0 -4 -28z"/>
<path d="M581 1746 c2 -2 18 -6 34 -10 22 -5 26 -4 15 4 -14 9 -59 15 -49 6z"/>
<path d="M3742 1705 c0 -16 2 -22 5 -12 2 9 2 23 0 30 -3 6 -5 -1 -5 -18z"/>
<path d="M623 1670 c-11 -16 -10 -18 2 -14 8 4 15 12 15 20 0 19 -3 18 -17 -6z"/>
<path d="M661 1674 c0 -11 3 -14 6 -6 3 7 2 16 -1 19 -3 4 -6 -2 -5 -13z"/>
<path d="M566 1619 c3 -5 18 -9 34 -9 16 0 31 4 34 9 3 4 -12 8 -34 8 -22 0
-37 -4 -34 -8z"/>
<path d="M705 1620 c-30 -8 -30 -8 8 -9 23 -1 36 3 32 9 -3 6 -7 9 -8 9 -1 -1
-15 -5 -32 -9z"/>
<path d="M2712 1239 c2 -4 64 -60 138 -125 74 -64 183 -159 241 -211 l107 -93
246 215 c135 119 246 216 246 218 0 1 -221 2 -490 2 -270 0 -489 -3 -488 -6z"/>
</g>
</svg>
